<svg xmlns="http://www.w3.org/2000/svg" width="1200" height="630" viewBox="0 0 1200 630">
  <defs>
    <linearGradient id="bg" x1="0" y1="0" x2="1" y2="1">
      <stop offset="0" stop-color="#d7f3f4"/>
      <stop offset="0.55" stop-color="#ffffff"/>
      <stop offset="1" stop-color="#a9e3e5"/>
    </linearGradient>
    <linearGradient id="teal" x1="0" y1="0" x2="0" y2="1">
      <stop offset="0" stop-color="#1c8b90"/>
      <stop offset="1" stop-color="#0f5e61"/>
    </linearGradient>
  </defs>

  <rect width="1200" height="630" fill="url(#bg)"/>

  <circle cx="260" cy="315" r="160" fill="none" stroke="url(#teal)" stroke-width="18" opacity="0.95"/>

  <!-- simple lotus mark -->
  <g fill="none" stroke="url(#teal)" stroke-width="10" stroke-linecap="round" stroke-linejoin="round" transform="translate(260 315)">
    <path d="M0-100c-38 46-38 92 0 138c38-46 38-92 0-138z"/>
    <path d="M-78-60c-20 52 0 96 60 126c6-48-14-86-60-126z"/>
    <path d="M78-60c20 52 0 96-60 126c-6-48 14-86 60-126z"/>
  </g>

  <g font-family="ui-sans-serif,system-ui,-apple-system,Segoe UI,Roboto,Arial" fill="#0b1f22">
    <text x="460" y="290" font-size="74" font-weight="800">AllergenWise</text>
    <text x="460" y="360" font-size="34" fill="#4a6a6f">Allergen matrices for cafes &amp; restaurants</text>
    <text x="460" y="412" font-size="28" fill="#4a6a6f">Perth metro • Book a consult: info@allergenwise.com.au</text>
  </g>
</svg>
